<?xml version="1.0" encoding="UTF-8" standalone="no"?>
<!-- Created with Inkscape (http://www.inkscape.org/) -->

<svg
   viewBox="0 0 512 512"
   version="1.1"
   id="svg1"
   xmlns="http://www.w3.org/2000/svg"
   xmlns:svg="http://www.w3.org/2000/svg">
  <g
     id="layer1"
     style="fill:none;fill-opacity:1">
    <path
       style="fill:#ff6600;fill-opacity:0.25;stroke:#ff6600;stroke-width:2;stroke-linecap:square;stroke-linejoin:round;stroke-miterlimit:0;stroke-dasharray:none;stroke-dashoffset:0;stroke-opacity:1"
       d="m 303.41992,25.90625 -25.72265,125.38867 c 9.2852,1.90487 18.419,5.11477 26.87695,9.44922 l 0.008,0.004 c 3.35504,1.71876 6.61325,3.61297 9.74414,5.66211 l 70.0957,-107.101566 c -6.94279,-4.54398 -14.11074,-8.705747 -21.4707,-12.476563 l -0.004,-0.002 C 344.15206,37.198519 324.13374,30.155709 303.41992,25.90625 Z m 89.84766,39.482422 -74.86719,103.820308 c 8.96487,6.46474 17.03166,14.44279 23.60156,23.3418 l 0.002,0.002 c 1.35794,1.8392 2.63849,3.69414 3.83984,5.5586 L 453.4434,128.7813 c -2.70827,-4.20314 -5.53548,-8.28824 -8.46484,-12.25586 l -0.002,-0.002 C 430.49225,96.904759 413.05466,79.657504 393.26758,65.388672 Z M 80.337891,100.0918 c -8.738353,9.84514 -16.642252,20.41197 -23.623047,31.59375 -11.68495,18.70979 -20.688623,38.99565 -26.699219,60.28906 l 123.187495,34.77148 c 2.68917,-9.52675 6.79997,-18.80454 12.07813,-27.25586 l 0.008,-0.0137 c 3.17157,-5.081 6.79133,-9.92293 10.7793,-14.41601 z m 410.474609,155.80664 -128,0.0312 c 0.002,8.82481 -1.08105,17.65508 -3.19336,26.07422 l -0.004,0.0137 c -1.10547,4.41035 -2.4972,8.7532 -4.1582,12.97265 l 119.10352,46.88672 c 3.68932,-9.37202 6.76447,-18.96681 9.21093,-28.72461 l 0.004,-0.0137 c 4.71312,-18.79017 7.04181,-38.01515 7.03711,-57.24023 z m -341.59375,2.59765 -127.966797,2.94922 c 0.322209,13.98587 1.886823,27.94363 4.703125,41.70899 C 30.212454,323.98479 37.293753,344.12111 47,363.02344 l 113.86523,-58.47071 c -4.36291,-8.4965 -7.59376,-17.68336 -9.5039,-27.02929 l -0.004,-0.0176 c -1.27217,-6.21567 -1.99115,-12.60653 -2.13867,-19.00977 z m 204.33203,41.02344 c -4.30763,9.6266 -10.16942,18.75479 -17.18164,26.75 l -0.002,0.004 c -1.79611,2.04819 -3.65388,4.01233 -5.56446,5.88476 l 89.5918,91.41797 c 4.24937,-4.16452 8.32047,-8.4717 12.21094,-12.9082 l -0.004,0.002 c 15.43398,-17.59755 28.18781,-37.42119 37.78516,-58.86914 z m -155.40039,46.20899 -69.53516,107.46484 c 5.4319,3.51469 10.99154,6.79044 16.66016,9.82617 18.19954,9.74835 37.61603,17.0471 57.76172,21.69336 0.002,4.6e-4 0.004,10e-4 0.006,0.002 19.46559,4.49569 39.33436,6.44861 59.13476,5.93164 L 258.83803,362.6895 c -9.12271,0.23819 -18.27602,-0.6765 -27.00391,-2.69336 l -0.0293,-0.008 c -9.03564,-2.08366 -17.89511,-5.41092 -26.09375,-9.80273 l -0.006,-0.004 c -2.59374,-1.38903 -5.11755,-2.87618 -7.55469,-4.45312 z"
       id="path1" />
  </g>
</svg>
