<?xml version="1.0" encoding="UTF-8" standalone="no"?>
<!-- Created with Inkscape (http://www.inkscape.org/) -->

<svg
   viewBox="0 0 512 512"
   version="1.1"
   id="svg1"

   xmlns="http://www.w3.org/2000/svg"
   xmlns:svg="http://www.w3.org/2000/svg">
  <defs
     id="defs1">
    <linearGradient
       id="swatch4">
      <stop
         style="stop-color:#ff6600;stop-opacity:1;"
         offset="0"
         id="stop5" />
    </linearGradient>
  </defs>
  <g
     id="layer1"
     style="fill:none;fill-opacity:1">
    <path
       style="fill:none;fill-opacity:0;stroke:#ff6600;stroke-width:3;stroke-linejoin:bevel;stroke-miterlimit:0;stroke-dasharray:none;stroke-opacity:1"
       d="m 332.68555,23.130859 -12.6211,38.376953 c 18.56635,6.106658 36.28046,14.949253 52.36133,26.101563 l 0.006,0.002 c 14.12556,9.789949 27.03323,21.382605 38.28906,34.376955 L 441.25781,95.537109 C 427.78166,79.979493 412.3647,66.135813 395.44336,54.408203 l 0.006,0.002 C 376.17429,41.042729 354.99373,30.468244 332.68555,23.130859 Z m -172.2168,7.080078 c -16.78742,7.110793 -32.74645,16.104394 -47.52539,26.75 C 91.985661,72.04957 73.460751,90.423459 58.205078,111.26367 l 32.599609,23.86328 C 103.53429,117.73752 119.06068,102.33706 136.55273,89.744141 l 0.004,-0.002 C 148.89638,80.85361 162.23657,73.337137 176.2247,67.412063 Z M 501.0293,255.9082 l -40.39844,0.01 c 0.004,16.82123 -2.04624,33.64744 -6.12891,49.91992 l -0.002,0.01 c -4.443,17.74297 -11.32276,34.91063 -20.35352,50.83007 l -0.002,0.004 c -0.81114,1.43057 -1.63938,2.85191 -2.48437,4.26172 l 34.65234,20.76953 c 1.01193,-1.68831 2.0022,-3.39009 2.97266,-5.10156 l 0.002,-0.004 c 10.83118,-19.09404 19.06402,-39.63062 24.40039,-60.9375 l 0.002,-0.01 c 4.90267,-19.54419 7.34476,-39.64997 7.33985,-59.75196 z m -448.888675,17.87305 -40.251953,3.45898 c 1.760133,20.47321 6.107551,40.70563 12.943359,60.10157 7.811003,22.188 18.84143,43.18572 32.638672,62.21289 l 32.705078,-23.7168 C 78.665784,359.96496 69.441656,342.39781 62.9375,323.91992 l -0.0039,-0.006 c -5.691708,-16.1495 -9.324945,-33.0571 -10.792975,-50.13267 z M 319.05078,450.65039 c -16.94876,5.4899 -34.67148,8.72798 -52.49805,9.62695 h -0.006 c -18.92733,0.95906 -37.98953,-0.66653 -56.39843,-4.88672 l -9.02735,39.37891 c 22.11932,5.07079 44.87424,6.99989 67.4668,5.85547 21.34711,-1.07651 42.54339,-4.9414 62.91211,-11.53906 z"
       id="path1" />
  </g>
</svg>
